<?xml version="1.0" encoding="UTF-8"?>
<svg id="Layer_1" data-name="Layer 1" xmlns="http://www.w3.org/2000/svg" viewBox="0 0 1080 290.55">
  <defs>
    <style>
      .cls-1 {
        stroke: #231f20;
      }

      .cls-1, .cls-2, .cls-3, .cls-4 {
        stroke-miterlimit: 10;
      }

      .cls-1, .cls-5 {
        fill: #231f20;
      }

      .cls-2 {
        fill: #f2b262;
      }

      .cls-2, .cls-3, .cls-4 {
        stroke: #fff;
        stroke-width: .2px;
      }

      .cls-3 {
        fill: #002d3f;
      }

      .cls-5 {
        stroke-width: 0px;
      }

      .cls-4 {
        fill: #a72e45;
      }
    </style>
  </defs>
  <path class="cls-1" d="M117.86,156.16s0-.01,0-.02c-.4-2.52-.71-5.36-.82-8.48-.1-2.84-.03-5.47.15-7.82.13-1.49.35-3.13.7-4.89.35-1.79.79-3.42,1.24-4.86,0,0,0-.01,0-.02,3.71-8.85,8.43-14.38,12.26-17.87,7.45-6.79,15.34-9.35,14.85-13.6-.25-2.11-2.5-4.15-4.74-4.4-4.97-.54-7.75,8.02-15.51,15.62-3.69,3.62-9.57,8.05-18.96,11.12,0,0,0,0-.01,0-1.61.39-3.33.73-5.16.99-5.29.77-10.04.71-14,.32-2.64-.26-6.25-.89-10.28-2.51-3.61-1.45-6.41-3.23-8.41-4.71,0,0,0,0,0,0-3.81-3.17-8.11-7.27-12.33-12.46-2.04-2.5-3.81-4.96-5.35-7.29-1.66-2.52-5.18-3.15-7.48-1.2-.11.09-.22.19-.33.3-.78.76-1.26,1.62-1.54,2.44-.65,1.9.15,3.99,1.81,5.12,2.3,1.57,4.72,3.36,7.18,5.4,4.54,3.76,8.27,7.53,11.27,10.97,1.35,1.71,2.82,3.81,4.21,6.33,1.67,3.04,2.79,5.88,3.54,8.27.83,3.17,1.55,7.07,1.74,11.57.33,7.89-1.13,14.41-2.53,18.85,0,.01-.01.03-.02.04-3.18,4.7-7.67,10.4-13.84,16.07-4.15,3.81-8.21,6.83-11.88,9.22-2.12,1.38-2.62,4.33-.96,6.23.1.11.21.23.32.34,1.58,1.51,4.08,2.01,6.57,1.32,1.71-.47,3.13-1.69,3.96-3.26,2.12-4.01,5.84-9.69,12.06-14.84,5.69-4.71,11.34-7.19,15.14-8.52,3.16-.96,7.52-1.91,12.76-2.01,6.45-.12,11.72,1.11,15.24,2.23,2.32.81,4.93,1.91,7.67,3.43,5.27,2.91,9.15,6.33,11.84,9.13.01.02.02.04.03.05,7.19,7.43,9.35,15.31,13.59,14.82,2.11-.25,4.15-2.5,4.4-4.74.54-4.97-8.02-7.75-15.62-15.51-2.42-2.22-5.6-5.64-8.36-10.44-2.33-4.05-3.63-7.83-4.39-10.72Z"/>
  <g>
    <g>
      <path class="cls-5" d="M286.47,101.52c1.45,0,2.51,1.19,2.51,2.64v.4l-18.21,81.17c-.4,1.85-2.11,3.3-4.09,3.3h-14.52c-1.98,0-3.7-1.45-4.22-3.3l-5.02-22.97-5.15,22.97c-.4,1.85-2.11,3.3-4.09,3.3h-14.65c-1.98,0-3.7-1.45-4.09-3.3l-18.08-81.17c0-.26-.13-.4-.13-.66,0-1.32,1.19-2.38,2.51-2.38h12.01c1.19,0,2.24.79,2.51,1.98l12.54,56.49,8.05-35.5,4.62-20.99c.26-1.19,1.32-1.98,2.51-1.98h12.01c1.32,0,2.51,1.06,2.51,2.38,0,.26-.13.4-.13.66l-3.96,17.82c-.13.66-.13,1.32-.13,1.98,0,.79,0,1.45.13,2.11l7.52,33.53,12.67-56.49c.26-1.19,1.19-1.98,2.38-1.98h12.01Z"/>
      <path class="cls-5" d="M311.81,189.03h-11.75c-1.45,0-2.51-1.19-2.51-2.51v-82.49c0-1.45,1.06-2.51,2.51-2.51h11.75c1.32,0,2.51,1.06,2.51,2.51v82.49c0,1.32-1.19,2.51-2.51,2.51Z"/>
      <path class="cls-5" d="M378.59,186.52c0,1.32-1.06,2.51-2.51,2.51h-11.75c-1.32,0-2.51-1.19-2.51-2.51v-4.36c0-6.47-1.72-12.8-5.02-18.35l-15.97-26.13c-.13-.13-.4-.26-.53-.26-.4,0-.79.26-.79.66v48.44c0,1.32-1.06,2.51-2.51,2.51h-11.62c-1.45,0-2.51-1.19-2.51-2.51v-82.49c0-1.45,1.06-2.51,2.51-2.51h11.62c.92,0,1.72.4,2.11,1.06l21.12,34.84c.26.26.53.4.79.4.4,0,.79-.26.79-.79v-33c0-1.45,1.19-2.51,2.51-2.51h11.75c1.45,0,2.51,1.06,2.51,2.51v82.49Z"/>
      <path class="cls-5" d="M445.5,189.03h-26.53c-10.56-.13-19.93-6.07-25.87-16.76-4.09-7.52-6.6-16.89-6.6-27.06,0-24.68,14.65-44.74,32.47-44.74,13.86,0,21.91,7.13,26.92,19.8.13.4.26.79.26,1.19,0,.92-.53,1.72-1.45,2.24l-12.01,4.88c-.4.13-.66.26-1.06.26-1.06,0-1.98-.66-2.24-1.58-1.72-6.2-4.75-10.03-10.43-10.03-7.52,0-13.73,12.54-13.73,27.98,0,26.53,17.16,27.06,17.16,27.06h6.34c1.45,0,2.51-1.19,2.51-2.51v-13.59c0-1.45-1.06-2.51-2.51-2.51h-11.48c-1.45,0-2.51-1.19-2.51-2.51v-11.75c0-1.45,1.06-2.51,2.51-2.51h28.25c1.32,0,2.51,1.06,2.51,2.51v47.12c0,1.32-1.19,2.51-2.51,2.51Z"/>
      <path class="cls-5" d="M475.86,118.28c-1.45,0-2.64,1.06-2.64,2.51v12.94c0,1.45,1.32,2.38,2.64,2.38h.4c6.33-1.58,14.39-2.77,24.42-2.9.92,0,1.58.66,1.58,1.58v13.6c0,.79-.66,1.58-1.58,1.58-9.9.13-17.16,1.32-22.44,2.9-2.9.79-5.02,3.43-5.02,6.6v11.22c0,.79.79,1.58,1.58,1.58h25.87c.92,0,1.58.66,1.58,1.58v12.67c0,1.32-1.06,2.51-2.51,2.51h-41.58c-.92,0-1.58-.79-1.58-1.58v-83.68c0-1.32.92-2.24,2.11-2.24h41.97c.92,0,1.58.66,1.58,1.58v13.6c0,.79-.66,1.58-1.58,1.58h-24.81Z"/>
      <path class="cls-5" d="M572.2,145.21c0,10.16-2.38,19.53-6.47,27.06-5.94,10.69-15.31,16.63-25.87,16.76h-26.53c-1.45,0-2.51-1.19-2.51-2.51v-82.49c0-1.45,1.06-2.51,2.51-2.51h26.66c10.43.13,19.53,6.47,25.47,16.76,4.22,7.26,6.73,16.63,6.73,26.93ZM536.3,172.27s17.16-.53,17.16-27.06c0-13.46-6.6-26.93-15.84-26.93h-7.52c-1.45,0-2.51,1.06-2.51,2.51v48.97c0,1.32,1.06,2.51,2.51,2.51h6.2Z"/>
      <path class="cls-5" d="M662.21,186.65c-4.88,2.38-10.82,3.7-16.76,3.7-7.65,0-15.57-2.11-21.12-6.73-5.15-4.09-8.18-9.9-10.16-16.1-.13-.26-.13-.66-.13-.92,0-1.45.79-2.64,2.24-3.17,2.64-1.19,6.6-2.9,10.16-4.36.92-.4,1.85-.66,2.51-.66,1.45,0,2.38.79,2.9,2.64,1.06,4.36,3.43,8.98,7.65,11.09,1.85.92,3.96,1.32,6.07,1.32,2.9,0,5.67-.79,8.05-2.24,2.9-1.98,4.49-5.02,4.49-8.18,0-1.98-.66-4.09-1.98-5.81-.79-1.06-1.85-2.11-3.17-2.9-.79-.53-1.58-.79-2.51-1.19l-18.87-7c-1.72-.66-3.43-1.45-5.02-2.51-6.73-4.36-10.43-11.88-10.43-19.4,0-4.49,1.32-9.11,4.09-12.94,2.64-3.83,6.47-6.6,10.69-8.45,4.49-1.98,9.24-2.64,14.12-2.64h2.24c5.15.4,10.3,1.58,14.52,4.49,4.75,3.3,7.92,8.58,9.9,13.99.26.66.4,1.32.4,1.98,0,.4,0,.79-.26,1.06-.4.66-1.19.92-1.85,1.19-3.56,1.32-7.26,2.77-10.96,4.09-.66.26-1.45.53-2.11.53-.26,0-.53,0-.79-.13-1.45-.53-1.98-2.11-2.64-3.56-1.85-4.22-5.54-6.86-9.9-6.86-.4,0-.79.13-1.19.13-5.41.53-7.92,4.49-7.92,7.39,0,2.64,1.58,5.28,4.88,6.73l18.74,7c2.77.92,5.41,2.24,7.79,4.09,6.73,5.02,10.82,13.33,10.82,21.65,0,3.83-.92,7.66-2.77,11.22s-4.62,6.73-7.92,9.11c-1.19.92-2.51,1.58-3.83,2.38Z"/>
      <path class="cls-5" d="M737.18,184.28c0,.26.13.53.13.79,0,2.11-1.72,3.96-3.96,3.96h-50.68c-2.24,0-3.96-1.85-3.96-3.96,0-.26.13-.53.13-.79l17.82-79.46c.4-1.98,2.11-3.3,4.09-3.3h14.65c1.85,0,3.56,1.32,3.96,3.3l17.82,79.46ZM699.17,170.29v.4c0,.92.66,1.58,1.58,1.58h14.65c.79,0,1.58-.79,1.58-1.72v-.26l-8.45-37.75c0-.26-.26-.26-.53-.26-.13,0-.4,0-.4.26l-8.45,37.75Z"/>
      <path class="cls-5" d="M756.31,189.03c-1.98,0-3.7-1.45-4.09-3.3l-18.21-81.17c0-.13-.13-.4-.13-.53,0-1.45,1.19-2.51,2.64-2.51h12.01c1.19,0,2.11.79,2.38,1.98l12.67,56.49,12.67-56.49c.26-1.19,1.19-1.98,2.38-1.98h12.01c1.45,0,2.64,1.06,2.64,2.51,0,.13-.13.4-.13.53l-18.21,81.17c-.4,1.85-2.11,3.3-4.09,3.3h-14.52Z"/>
      <path class="cls-5" d="M816.1,189.03h-11.75c-1.45,0-2.51-1.19-2.51-2.51v-82.49c0-1.45,1.06-2.51,2.51-2.51h11.75c1.32,0,2.51,1.06,2.51,2.51v82.49c0,1.32-1.19,2.51-2.51,2.51Z"/>
      <path class="cls-5" d="M961.68,145.74c3.56,3.83,7.39,9.24,7.39,21.78v19.27c0,1.19-.92,2.24-2.24,2.24h-12.27c-1.19,0-2.24-1.06-2.24-2.24v-21.65c-.13-3.43-1.06-6.07-2.77-7.92h-.13c-.79-.79-1.98-1.32-3.17-1.32-.66,0-1.32.13-1.98.53-2.64,1.58-5.15,3.43-7.13,5.28-4.49,4.36-7.13,10.43-7.13,16.63v8.45c0,1.19-.92,2.24-2.11,2.24h-12.01c-1.45,0-2.64-1.19-2.64-2.51v-82.76c0-1.32,1.06-2.24,2.24-2.24h27.59c3.3,0,6.47.66,9.37,1.72,3.43,1.32,6.47,3.3,8.98,5.94,4.75,4.62,7.65,11.22,7.65,18.35s-2.77,13.6-7.39,18.21ZM942.67,118.28h-10.16c-1.32,0-2.51,1.06-2.51,2.51v24.02c0,1.06.92,1.72,1.85,1.72.4,0,.79,0,1.06-.26,5.94-4.49,11.48-7,16.76-12.14,1.72-1.58,2.64-3.96,2.64-6.6,0-5.15-4.36-9.24-9.64-9.24Z"/>
      <path class="cls-5" d="M1023.84,186.65c-4.88,2.38-10.82,3.7-16.76,3.7-7.65,0-15.57-2.11-21.12-6.73-5.15-4.09-8.18-9.9-10.16-16.1-.13-.26-.13-.66-.13-.92,0-1.45.79-2.64,2.24-3.17,2.64-1.19,6.6-2.9,10.16-4.36.92-.4,1.85-.66,2.51-.66,1.45,0,2.38.79,2.9,2.64,1.06,4.36,3.43,8.98,7.66,11.09,1.85.92,3.96,1.32,6.07,1.32,2.9,0,5.68-.79,8.05-2.24,2.9-1.98,4.49-5.02,4.49-8.18,0-1.98-.66-4.09-1.98-5.81-.79-1.06-1.85-2.11-3.17-2.9-.79-.53-1.58-.79-2.51-1.19l-18.88-7c-1.72-.66-3.43-1.45-5.02-2.51-6.73-4.36-10.43-11.88-10.43-19.4,0-4.49,1.32-9.11,4.09-12.94,2.64-3.83,6.47-6.6,10.69-8.45,4.49-1.98,9.24-2.64,14.12-2.64h2.24c5.15.4,10.29,1.58,14.52,4.49,4.75,3.3,7.92,8.58,9.9,13.99.26.66.4,1.32.4,1.98,0,.4,0,.79-.26,1.06-.4.66-1.19.92-1.85,1.19-3.56,1.32-7.26,2.77-10.96,4.09-.66.26-1.45.53-2.11.53-.26,0-.53,0-.79-.13-1.45-.53-1.98-2.11-2.64-3.56-1.85-4.22-5.54-6.86-9.9-6.86-.4,0-.79.13-1.19.13-5.41.53-7.92,4.49-7.92,7.39,0,2.64,1.58,5.28,4.88,6.73l18.74,7c2.77.92,5.41,2.24,7.79,4.09,6.73,5.02,10.82,13.33,10.82,21.65,0,3.83-.92,7.66-2.77,11.22-1.85,3.56-4.62,6.73-7.92,9.11-1.19.92-2.51,1.58-3.83,2.38Z"/>
    </g>
    <g>
      <rect class="cls-2" x="833.52" y="105.18" width="66.13" height="80.19" rx="22.36" ry="22.36"/>
      <g>
        <path class="cls-3" d="M904.01,121.07v-16.19c0-2.26-1.6-4.14-3.73-4.58-.3-.06-.62-.09-.94-.09h-16.19c-2.58,0-4.67,2.09-4.67,4.67s2.09,4.67,4.67,4.67h11.52v11.52c0,2.58,2.09,4.67,4.67,4.67s4.67-2.09,4.67-4.67Z"/>
        <path class="cls-3" d="M903.92,186.61c.06-.3.09-.62.09-.94v-16.19c0-2.58-2.09-4.67-4.67-4.67s-4.67,2.09-4.67,4.67v11.52h-11.52c-2.58,0-4.67,2.09-4.67,4.67s2.09,4.67,4.67,4.67h16.19c2.26,0,4.14-1.6,4.58-3.73Z"/>
        <path class="cls-3" d="M838.49,121.07v-11.52h11.52c2.58,0,4.67-2.09,4.67-4.67s-2.09-4.67-4.67-4.67h-16.19c-.32,0-.64.03-.94.09-2.13.44-3.73,2.32-3.73,4.58v16.19c0,2.58,2.09,4.67,4.67,4.67s4.67-2.09,4.67-4.67Z"/>
        <path class="cls-3" d="M854.67,185.25c-.21-2.46-2.43-4.26-4.9-4.26h-11.23s-.05-.02-.05-.05v-11.23c0-2.46-1.8-4.68-4.26-4.9-2.77-.24-5.09,1.94-5.09,4.65v16.19c0,.32.03.64.09.94.44,2.13,2.32,3.73,4.58,3.73h16.19c2.72,0,4.9-2.32,4.66-5.09Z"/>
      </g>
      <path class="cls-4" d="M871.49,153.78v-3.6h3.6c2.71,0,4.91-2.2,4.91-4.91s-2.2-4.91-4.91-4.91h-3.6v-3.6c0-2.71-2.2-4.91-4.91-4.91s-4.91,2.2-4.91,4.91v3.6h-3.6c-2.71,0-4.91,2.2-4.91,4.91s2.2,4.91,4.91,4.91h3.6v3.6c0,2.71,2.2,4.91,4.91,4.91s4.91-2.2,4.91-4.91Z"/>
    </g>
  </g>
</svg>